<?xml version="1.0" standalone="no"?>
<!DOCTYPE svg PUBLIC "-//W3C//DTD SVG 20010904//EN"
 "http://www.w3.org/TR/2001/REC-SVG-20010904/DTD/svg10.dtd">
<svg version="1.0" xmlns="http://www.w3.org/2000/svg"
 width="494.000000pt" height="494.000000pt" viewBox="0 0 494.000000 494.000000"
 preserveAspectRatio="xMidYMid meet">
<metadata>
Created by potrace 1.11, written by Peter Selinger 2001-2013
</metadata>
<g transform="translate(0.000000,494.000000) scale(0.100000,-0.100000)"
fill="#000000" stroke="none">
<path d="M0 2470 l0 -2470 2470 0 2470 0 0 897 0 896 -28 -39 c-47 -65 -55
-68 -110 -54 -122 34 -411 162 -419 187 -2 6 25 16 59 23 35 7 130 34 211 61
201 67 224 65 266 -16 l21 -40 0 1513 0 1512 -2470 0 -2470 0 0 -2470z m1645
1646 c50 -39 75 -98 81 -199 8 -121 -8 -202 -48 -244 -17 -18 -39 -33 -48 -33
-9 0 -32 17 -51 38 -50 55 -121 113 -239 195 -91 63 -105 77 -108 103 -2 25 4
37 33 62 119 105 297 141 380 78z m513 -141 c29 -35 26 -72 -14 -149 -31 -59
-104 -166 -114 -166 -12 0 -52 129 -57 189 -7 75 1 106 35 138 23 22 34 24 76
20 39 -3 55 -11 74 -32z m410 -14 c21 -22 53 -67 71 -100 l31 -60 -83 -103
c-46 -57 -92 -119 -102 -136 -32 -54 -37 -45 -54 81 -12 84 -15 278 -5 313 7
25 37 42 77 43 19 1 38 -11 65 -38z m484 1 c25 5 61 5 93 -1 29 -5 61 -8 72
-5 11 3 44 -1 74 -9 31 -8 79 -12 110 -9 33 2 65 -1 78 -7 22 -12 82 -20 178
-25 41 -2 56 -7 72 -27 16 -19 23 -22 38 -13 17 10 111 -2 154 -20 10 -4 20
-2 24 4 4 7 11 8 18 2 20 -15 68 -24 140 -26 59 -2 71 -5 86 -24 11 -15 23
-21 34 -16 10 3 24 1 32 -6 8 -7 22 -10 30 -6 17 6 115 -33 115 -46 0 -4 14
-23 30 -41 17 -19 30 -42 30 -50 0 -9 5 -19 10 -22 6 -3 10 -23 10 -43 0 -21
7 -48 17 -61 10 -14 17 -46 18 -80 0 -31 6 -65 12 -76 6 -11 13 -54 15 -97 2
-45 10 -83 18 -93 10 -12 11 -24 4 -43 -5 -15 -9 -117 -8 -227 0 -157 -2 -203
-13 -213 -9 -9 -10 -18 -4 -26 10 -12 20 -132 25 -286 1 -59 7 -104 16 -120 8
-14 15 -54 16 -90 1 -36 5 -78 9 -94 6 -23 4 -32 -10 -43 -28 -20 -65 -17 -65
6 0 10 -9 30 -21 45 l-20 26 22 31 c12 17 24 50 27 74 4 37 1 47 -21 69 -44
44 -133 29 -285 -48 -39 -20 -66 -26 -116 -26 -69 0 -76 5 -76 60 0 62 -67 70
-134 16 -22 -18 -60 -45 -84 -60 l-44 -27 -38 43 c-21 24 -82 99 -135 168
-109 141 -294 351 -336 381 -56 40 -112 201 -107 306 l3 58 50 7 c70 10 111
54 120 133 10 75 1 157 -21 190 -25 38 -86 66 -163 72 -62 5 -69 8 -89 37 -12
18 -42 56 -66 84 l-45 53 20 46 c24 57 20 80 -25 127 -29 31 -40 36 -78 36
-55 0 -65 -11 -75 -81 -10 -69 -36 -79 -58 -22 -8 21 -26 60 -40 87 -15 26
-23 51 -20 54 3 4 9 2 13 -4 5 -7 28 -9 67 -5 33 4 92 6 132 6 39 -1 77 2 85
6 8 5 18 3 26 -5 10 -10 24 -11 54 -4z m-1962 -29 c14 -3 30 -5 37 -4 7 1 19
-13 27 -32 14 -36 45 -70 92 -104 l29 -21 -39 -39 c-21 -21 -51 -57 -68 -80
-16 -24 -31 -43 -32 -43 -2 0 -24 11 -47 25 -24 14 -57 25 -72 25 -41 0 -93
-25 -112 -54 -25 -38 -11 -78 51 -145 l54 -58 -25 -27 c-13 -14 -34 -26 -47
-26 -41 0 -157 -38 -211 -69 -70 -40 -138 -112 -177 -187 l-32 -61 -36 18
c-20 11 -45 19 -57 19 -36 0 -44 13 -43 72 1 33 -3 63 -11 72 -7 8 -10 20 -6
25 3 6 -1 32 -10 58 -13 37 -16 78 -14 173 2 69 0 130 -4 137 -4 7 -1 24 8 37
9 14 16 35 15 48 -5 53 2 71 41 113 37 40 46 45 85 45 24 0 44 4 44 8 0 5 6
17 14 27 12 17 16 17 30 6 13 -11 20 -11 28 -3 7 7 22 12 34 12 12 0 33 9 47
20 22 17 29 19 46 8 15 -9 23 -9 35 1 8 7 24 10 35 6 10 -3 22 -2 25 4 6 10
225 6 266 -6z m830 -25 c0 -20 -34 -24 -60 -8 -12 7 -12 12 4 29 15 16 21 18
37 8 10 -6 19 -20 19 -29z m420 16 c23 -27 -32 -84 -82 -84 -33 0 -36 5 -31
56 l5 42 49 0 c28 0 53 -6 59 -14z m596 -48 c19 -19 34 -43 34 -54 0 -27 -58
-110 -97 -140 l-33 -24 -10 27 c-11 29 -13 145 -4 194 6 28 10 31 41 31 26 0
43 -8 69 -34z m-1086 -17 c0 -4 6 -6 13 -3 24 9 49 -20 45 -51 l-4 -30 -11 25
c-7 14 -12 19 -12 12 -1 -10 -5 -10 -23 0 -29 16 -38 28 -38 50 0 11 5 15 15
12 8 -4 15 -10 15 -15z m491 -85 c-2 -33 -6 -52 -11 -44 -4 6 -22 13 -40 15
-18 1 -36 8 -40 15 -4 7 -13 9 -20 5 -9 -5 -10 -1 -5 16 6 23 5 22 -19 -5 -29
-32 -32 -30 -14 9 9 21 16 24 42 20 17 -2 47 2 66 9 19 8 37 14 40 15 3 0 3
-24 1 -55z m-524 14 c-3 -7 -5 -2 -5 12 0 14 2 19 5 13 2 -7 2 -19 0 -25z m33
-4 c0 -8 -4 -12 -10 -9 -5 3 -10 10 -10 16 0 5 5 9 10 9 6 0 10 -7 10 -16z
m920 -112 c4 -65 9 -86 22 -93 10 -5 15 -16 12 -24 -4 -8 -1 -15 5 -15 6 0 11
3 11 8 0 4 18 18 39 31 23 14 47 40 58 62 18 38 43 53 43 26 0 -8 9 -22 19
-31 11 -10 17 -24 14 -32 -3 -9 0 -14 7 -12 6 2 16 -7 20 -19 7 -18 4 -22 -17
-28 -14 -3 -57 -21 -95 -40 l-69 -33 -6 30 c-3 17 -11 27 -18 24 -14 -5 -40
22 -50 53 -4 15 -15 21 -36 21 -21 0 -29 5 -29 18 0 14 2 15 10 2 8 -13 10
-13 10 1 0 9 -6 19 -14 22 -16 6 -36 -11 -36 -31 0 -7 -4 -10 -10 -7 -5 3 3
28 19 58 15 29 33 62 40 75 7 13 20 22 29 20 14 -3 18 -19 22 -86z m-1393 22
c2 -7 -3 -14 -12 -18 -9 -3 -13 -2 -10 4 4 6 -9 10 -29 10 -35 0 -45 -15 -21
-32 16 -12 -17 -29 -45 -23 -24 5 -24 5 -6 -10 20 -15 19 -16 -21 -19 -7 -1
-13 -6 -12 -11 0 -6 6 -9 14 -7 13 3 15 -21 2 -34 -15 -15 -6 -24 17 -18 13 3
26 2 29 -3 3 -5 -4 -10 -15 -10 -29 -3 -33 -10 -17 -30 13 -16 13 -16 -9 -1
-28 19 -72 77 -72 95 0 7 32 44 71 83 l71 71 30 -18 c17 -10 33 -23 35 -29z
m809 14 c-10 -6 -22 -6 -26 -2 -5 5 3 10 18 11 22 1 24 0 8 -9z m-848 -39 c-2
-6 -8 -10 -13 -10 -5 0 -11 4 -13 10 -2 6 4 11 13 11 9 0 15 -5 13 -11z m896
-39 c32 -12 32 -18 1 -54 -30 -34 -35 -31 -42 23 -6 44 -1 47 41 31z m-950
-62 c-3 -4 0 -8 7 -8 7 0 10 -2 7 -5 -12 -13 -36 7 -31 26 4 15 8 17 14 8 4
-7 5 -17 3 -21z m-211 8 c44 -18 69 -49 70 -88 3 -44 -25 -48 -98 -13 -63 29
-84 60 -66 94 14 25 47 27 94 7z m1677 -14 c0 -15 -2 -15 -10 -2 -13 20 -13
33 0 25 6 -3 10 -14 10 -23z m-1505 -104 c6 -4 2 -8 -7 -8 -10 0 -18 7 -18 17
0 9 3 12 8 7 4 -5 12 -12 17 -16z m1964 -4 c39 -33 55 -88 42 -146 -21 -94
-81 -101 -227 -28 -55 28 -120 53 -147 56 l-47 7 37 27 c142 104 279 137 342
84z m-1969 -24 c11 -7 11 -10 2 -10 -7 0 -10 -4 -7 -10 3 -6 -4 -10 -17 -9
-13 0 -18 3 -11 5 7 3 9 12 6 20 -6 16 5 18 27 4z m15 -51 c-16 -3 -22 -7 -12
-8 9 0 17 -6 17 -11 0 -10 -32 -6 -70 7 -8 3 -50 4 -93 3 -51 -1 -77 2 -73 9
4 6 27 8 54 5 26 -3 59 -1 74 3 15 4 51 6 80 4 47 -4 49 -5 23 -12z m710 -20
c103 -13 279 -61 415 -114 173 -68 433 -207 585 -313 28 -20 63 -45 80 -56
162 -114 344 -297 465 -471 124 -177 291 -360 397 -438 l43 -30 -108 -37
c-134 -46 -261 -112 -472 -246 -91 -58 -171 -108 -179 -111 -7 -3 -66 -38
-130 -76 -272 -163 -599 -306 -839 -367 -329 -83 -757 -61 -1095 56 -276 96
-564 269 -733 440 -110 110 -160 185 -139 205 2 3 51 -1 107 -8 266 -33 486
-27 712 18 144 29 343 99 360 128 10 16 9 15 -125 -29 -194 -64 -357 -93 -529
-94 -90 0 -186 6 -255 17 -60 9 -153 19 -205 21 l-95 4 -38 53 c-53 75 -65
120 -44 165 25 51 22 82 -8 96 -14 6 -25 16 -25 22 0 39 24 153 46 221 54 165
134 294 260 418 l69 69 6 -94 c9 -129 37 -197 108 -269 112 -111 261 -120 458
-27 137 64 251 177 331 328 49 91 66 172 60 282 -5 92 -14 113 -65 148 -18 13
-30 26 -26 30 4 4 49 17 98 28 79 19 118 26 235 46 32 5 161 -2 275 -15z
m-803 -73 c87 -31 154 -70 175 -103 83 -126 -50 -416 -252 -552 -91 -60 -166
-86 -255 -86 -150 0 -231 78 -247 236 -15 142 12 267 77 359 35 50 127 121
187 146 82 33 220 33 315 0z m1848 -102 c0 -2 -9 -4 -21 -4 -11 0 -18 4 -14
10 5 8 35 3 35 -6z m55 -24 c22 -11 45 -20 52 -20 9 0 13 -18 13 -64 0 -42 8
-85 24 -130 13 -36 22 -66 20 -66 -3 0 -23 17 -45 37 -22 20 -63 54 -90 75
-56 42 -51 49 13 18 27 -13 45 -17 52 -10 6 6 1 13 -15 19 -13 5 -18 10 -11
10 7 1 19 7 27 14 11 12 10 16 -6 28 -10 7 -19 21 -19 30 0 11 -13 22 -35 29
-19 6 -37 16 -40 21 -4 5 5 5 20 -1 38 -14 40 -13 14 10 -31 25 -23 25 26 0z
m-8 -86 c-3 -3 -12 -4 -19 -1 -8 3 -5 6 6 6 11 1 17 -2 13 -5z m28 -24 c-3 -5
-16 -10 -28 -10 -18 0 -19 2 -7 10 20 13 43 13 35 0z m-2677 -51 c26 -7 51
-16 56 -20 6 -5 -27 -46 -80 -101 -50 -51 -102 -108 -116 -127 -25 -33 -25
-33 -52 -16 -30 20 -56 63 -56 94 0 25 16 36 24 16 9 -25 62 -18 85 11 28 35
26 59 -4 90 l-25 25 42 19 c50 23 64 24 126 9z m3607 -739 c0 -19 -9 -29 -35
-42 -36 -19 -110 -25 -110 -9 0 4 21 25 47 45 57 44 98 47 98 6z m487 3 c47
-42 -4 -129 -94 -159 -40 -13 -72 -15 -142 -11 -50 3 -102 9 -114 14 -23 9
-23 10 24 48 26 22 86 59 133 82 94 48 160 56 193 26z m-12 -203 c0 -5 -7 -7
-15 -4 -8 4 -15 8 -15 10 0 2 7 4 15 4 8 0 15 -4 15 -10z m-45 -10 c-3 -5 -14
-10 -23 -9 -14 0 -13 2 3 9 27 11 27 11 20 0z m59 -26 c3 -8 2 -12 -4 -9 -6 3
-10 1 -10 -5 0 -7 -5 -6 -14 2 -12 11 -11 14 3 20 9 4 17 7 17 7 1 1 5 -6 8
-15z m-725 -321 c28 -35 36 -69 22 -99 -18 -39 -34 -28 -72 51 -32 66 -35 76
-21 84 20 11 44 0 71 -36z m827 -57 c3 -19 2 -41 -2 -48 -5 -7 -7 -23 -5 -36
1 -13 -3 -30 -9 -37 -7 -8 -9 -26 -6 -39 8 -31 -31 -178 -50 -189 -17 -10 -18
-41 -2 -66 9 -15 7 -24 -10 -49 -12 -16 -22 -38 -22 -49 -1 -10 -9 -28 -20
-41 -20 -24 -96 -56 -112 -46 -5 3 -17 -1 -27 -10 -12 -11 -46 -18 -112 -22
-52 -3 -114 -8 -139 -10 -98 -9 -404 -4 -415 7 -3 4 -18 3 -33 -2 -85 -26
-127 -32 -213 -34 -70 0 -103 -5 -121 -17 -14 -10 -30 -13 -38 -8 -7 4 -27 2
-44 -5 -17 -7 -62 -11 -101 -10 -38 1 -79 -2 -90 -8 -11 -6 -48 -10 -82 -9
-34 0 -64 -2 -67 -6 -5 -8 -181 -6 -195 2 -5 3 -28 2 -52 -2 -24 -4 -77 -5
-117 -2 -41 3 -75 3 -77 0 -2 -3 -31 -4 -65 -4 -48 1 -66 6 -84 23 -15 15 -26
19 -31 12 -6 -11 -45 -16 -45 -5 0 3 18 27 41 54 32 38 48 49 82 54 99 16 332
98 457 161 66 33 68 34 115 19 77 -23 183 -18 261 11 82 31 89 31 156 0 93
-43 148 -28 169 47 13 51 -6 102 -46 120 -41 19 -29 36 41 56 23 7 44 19 48
27 5 15 -17 44 -37 46 -7 1 -17 2 -24 3 -14 1 -42 36 -43 51 0 11 198 125 218
125 13 0 43 -54 61 -112 13 -39 37 -54 75 -44 39 10 60 91 36 137 -19 35 7 20
79 -46 39 -35 92 -75 118 -89 28 -14 58 -40 73 -63 45 -69 101 -123 127 -123
98 0 157 96 121 198 -11 30 -11 35 7 44 11 6 45 36 75 68 l55 57 57 -28 c49
-25 58 -34 64 -63z m-209 38 c-14 -12 -24 -24 -21 -26 2 -3 -7 -11 -21 -18
-23 -12 -28 -12 -47 8 -12 12 -19 24 -16 27 3 3 13 -1 21 -10 14 -14 18 -13
42 9 45 41 50 44 59 38 5 -3 -2 -15 -17 -28z m-248 -23 c128 -62 175 -124 134
-179 -34 -46 -59 -41 -120 23 -47 51 -133 178 -133 199 0 11 35 -2 119 -43z
m-225 27 c-3 -4 -11 -5 -19 -1 -21 7 -19 12 4 10 11 0 18 -5 15 -9z m63 -31
c12 -17 25 -41 29 -52 7 -18 6 -19 -12 -5 -40 31 -84 70 -79 70 4 0 15 -5 26
-11 19 -10 19 -9 9 10 -17 33 3 24 27 -12z m-467 -152 c6 -8 9 -19 5 -25 -7
-12 -135 -14 -135 -2 0 13 62 41 91 41 15 1 32 -6 39 -14z m-116 -67 c-3 -4
-12 -8 -20 -8 -8 0 -14 4 -14 8 0 4 9 8 19 8 11 0 17 -4 15 -8z m-2551 -213
c143 -68 289 -122 434 -158 84 -21 96 -27 147 -75 31 -29 56 -58 56 -64 0 -7
-25 -8 -77 -3 -43 5 -89 7 -102 7 -13 -1 -32 5 -42 14 -13 11 -27 14 -45 10
-15 -4 -40 -2 -56 5 -22 9 -31 9 -43 -1 -8 -6 -20 -8 -27 -4 -7 4 -58 8 -114
8 -87 1 -106 4 -131 22 -15 11 -41 24 -57 28 -17 4 -41 15 -55 25 -14 10 -41
21 -60 25 -34 6 -60 30 -61 54 0 16 -37 69 -68 99 -19 19 -23 36 -27 99 -2 42
-8 81 -14 87 -6 6 -11 17 -11 23 0 7 50 -21 111 -62 61 -41 170 -103 242 -139z
m2559 135 c22 -6 39 -19 43 -30 9 -29 -12 -60 -41 -60 -38 0 -268 42 -278 51
-5 4 7 17 25 28 28 17 51 21 124 21 50 0 107 -5 127 -10z m-1229 -464 c18 -7
43 -25 56 -39 23 -25 23 -27 7 -52 -23 -35 -64 -33 -116 8 -23 17 -51 47 -62
65 l-20 32 51 0 c29 0 66 -6 84 -14z m-364 -35 c89 -46 128 -133 76 -167 -38
-25 -71 -6 -99 59 -27 59 -40 127 -25 127 5 0 27 -9 48 -19z"/>
<path d="M1853 3833 c9 -2 23 -2 30 0 6 3 -1 5 -18 5 -16 0 -22 -2 -12 -5z"/>
<path d="M2314 3786 c5 -15 3 -17 -14 -12 -58 18 -65 19 -54 7 6 -6 25 -16 43
-21 25 -7 33 -6 38 6 3 9 0 21 -7 27 -10 10 -12 8 -6 -7z"/>
<path d="M2850 3541 c0 -11 9 -21 23 -24 21 -6 21 -5 3 8 -10 7 -15 18 -11 24
3 6 1 11 -4 11 -6 0 -11 -8 -11 -19z"/>
<path d="M2950 3549 c0 -5 5 -7 10 -4 6 3 10 8 10 11 0 2 -4 4 -10 4 -5 0 -10
-5 -10 -11z"/>
<path d="M1260 3660 c0 -5 5 -10 11 -10 5 0 7 5 4 10 -3 6 -8 10 -11 10 -2 0
-4 -4 -4 -10z"/>
<path d="M1980 3026 c0 -52 56 -198 140 -366 109 -215 135 -308 128 -446 -4
-76 -11 -104 -37 -160 -52 -111 -131 -191 -263 -267 -42 -24 -62 -47 -42 -47
17 0 174 86 216 118 137 104 195 254 169 444 -15 118 -53 220 -163 438 -52
102 -102 213 -113 248 -21 64 -35 80 -35 38z"/>
<path d="M2651 2570 c-26 -11 -62 -40 -131 -104 -25 -23 -71 -62 -103 -86 -67
-50 -67 -47 -14 -183 40 -107 73 -163 111 -192 49 -37 88 -33 139 14 l42 39
-23 24 c-44 48 -26 49 71 7 64 -28 78 -31 146 -27 170 11 267 99 217 197 -44
84 -144 129 -263 118 -35 -4 -63 -3 -61 1 45 85 45 113 0 163 -30 33 -89 47
-131 29z m87 -73 c8 -39 -49 -77 -157 -108 -102 -29 -114 -26 -62 19 110 94
211 135 219 89z m-194 -370 c40 -47 45 -67 18 -67 -29 0 -66 46 -92 114 -9 26
-9 26 15 10 13 -8 40 -34 59 -57z"/>
<path d="M1627 2493 c-13 -12 -7 -42 15 -79 43 -74 22 -177 -62 -299 -18 -26
-29 -49 -26 -53 8 -8 74 66 133 148 64 89 61 87 79 62 8 -12 19 -22 25 -22 13
0 0 77 -23 130 -34 79 -112 142 -141 113z"/>
<path d="M2022 2213 c-9 -32 -27 -61 -62 -96 -28 -28 -48 -52 -45 -55 2 -2 24
7 49 22 72 42 105 97 92 151 -9 37 -20 30 -34 -22z"/>
<path d="M237 2183 c-38 -43 -33 -113 9 -113 39 0 74 42 74 90 0 39 -1 40 -33
40 -20 0 -41 -7 -50 -17z"/>
<path d="M690 3123 c-33 -12 -50 -38 -61 -90 -15 -74 -3 -103 44 -103 37 0 69
27 86 73 13 33 14 87 3 104 -9 14 -52 24 -72 16z"/>
<path d="M3090 3126 c0 -2 7 -6 15 -10 8 -3 15 -1 15 4 0 6 -7 10 -15 10 -8 0
-15 -2 -15 -4z"/>
</g>
</svg>
