<?xml version="1.0" encoding="UTF-8" standalone="no"?>
<!-- Created with Inkscape (http://www.inkscape.org/) -->

<svg xmlns:dc="http://purl.org/dc/elements/1.1/" xmlns:cc="http://creativecommons.org/ns#" xmlns:rdf="http://www.w3.org/1999/02/22-rdf-syntax-ns#" xmlns:svg="http://www.w3.org/2000/svg" xmlns="http://www.w3.org/2000/svg" xmlns:sodipodi="http://sodipodi.sourceforge.net/DTD/sodipodi-0.dtd" xmlns:inkscape="http://www.inkscape.org/namespaces/inkscape" width="1032.3556" height="481.77045" id="svg3055" version="1.1" inkscape:version="0.48.1 " sodipodi:docname="Nouveau document 4">
  <defs id="defs3057">
    <clipPath clipPathUnits="userSpaceOnUse" id="clipPath2999">
      <path inkscape:connector-curvature="0" d="M 199.464,26.034 276.094,26.034 276.094,61.795 199.464,61.795 199.464,26.034 z" id="path3001" />
    </clipPath>
  </defs>
  <sodipodi:namedview id="base" pagecolor="#ffffff" bordercolor="#666666" borderopacity="1.0" inkscape:pageopacity="0.0" inkscape:pageshadow="2" inkscape:zoom="0.70683594" inkscape:cx="363.47407" inkscape:cy="277.70114" inkscape:document-units="px" inkscape:current-layer="layer1" showgrid="false" fit-margin-top="0" fit-margin-left="0" fit-margin-right="0" fit-margin-bottom="0" inkscape:window-width="1366" inkscape:window-height="716" inkscape:window-x="-8" inkscape:window-y="-8" inkscape:window-maximized="1" />
  <metadata id="metadata3060">
    <rdf:RDF>
      <cc:Work rdf:about="">
        <dc:format>image/svg+xml</dc:format>
        <dc:type rdf:resource="http://purl.org/dc/dcmitype/StillImage" />
        <dc:title></dc:title>
      </cc:Work>
    </rdf:RDF>
  </metadata>
  <g inkscape:label="Calque 1" inkscape:groupmode="layer" id="layer1" transform="translate(-11.525934,-328.29289)">
    <g transform="matrix(13.471951,0,0,-13.471951,-2675.6433,1160.7921)" id="g2995">
      <g id="g2997" clip-path="url(#clipPath2999)">
        <g id="g3003" transform="translate(219.0867,31.7391)">
          <path inkscape:connector-curvature="0" d="M 0,0 C -3.585,1.101 -4.311,4.198 -4.09,7.623 L 1.09,7.623 C 1.09,5.257 1.193,3.274 4.041,3.274 5.792,3.274 6.649,4.402 6.649,6.081 6.649,10.533 -3.781,10.808 -3.781,18.165 -3.781,22.035 -1.929,25.117 4.386,25.117 9.428,25.117 11.935,22.857 11.592,17.689 L 6.547,17.689 C 6.547,19.539 6.239,21.418 4.145,21.418 2.465,21.418 1.469,20.494 1.469,18.785 1.469,14.092 11.901,14.502 11.901,6.73 11.901,2.447 9.799,0.693 7.225,0 L 0,0 z" style="fill:#7f8082;fill-opacity:1;fill-rule:nonzero;stroke:none" id="path3005" />
        </g>
        <g id="g3007" transform="translate(243.5959,48.8451)">
          <path inkscape:connector-curvature="0" d="M 0,0 C 0.035,2.295 -0.344,4.312 -3.089,4.312 -6.313,4.312 -6.313,-0.035 -6.313,-4.829 -6.313,-12.564 -5.557,-13.936 -2.607,-13.936 -1.749,-13.936 -0.823,-13.731 -0.035,-13.455 L -0.035,-7.978 -2.847,-7.978 -2.847,-4.179 5.147,-4.179 5.147,-16.71 C 4.598,-16.817 3.729,-16.965 2.75,-17.106 L -6.118,-17.106 C -10.918,-15.911 -11.564,-12.109 -11.564,-4.556 -11.564,1.679 -11.254,8.011 -2.78,8.011 2.298,8.011 5.456,5.169 5.147,0 L 0,0 z" style="fill:#7f8082;fill-opacity:1;fill-rule:nonzero;stroke:none" id="path3009" />
        </g>
        <g id="g3011" transform="translate(258.5329,56.8564)">
          <path inkscape:connector-curvature="0" d="M 0,0 C 4.528,0.01 7,-1.762 7.343,-5.738 L 7.343,-7.428 2.3,-7.428 C 2.304,-5.626 1.852,-3.699 -0.241,-3.699 -1.924,-3.699 -2.921,-4.623 -2.921,-6.332 -2.921,-10.67 5.995,-10.647 7.343,-16.757 L 7.343,-20.338 C 6.794,-23.229 4.979,-24.541 2.837,-25.117 L -4.387,-25.117 C -7.973,-24.017 -8.697,-20.919 -8.478,-17.495 L -3.297,-17.495 C -3.297,-19.86 -3.192,-21.843 -0.344,-21.843 1.404,-21.843 2.263,-20.715 2.263,-19.037 2.263,-14.584 -8.169,-14.309 -8.169,-6.953 -8.169,-3.083 -6.316,-0.013 0,0" style="fill:#7f8082;fill-opacity:1;fill-rule:nonzero;stroke:none" id="path3013" />
        </g>
        <path inkscape:connector-curvature="0" d="M 199.464,31.739 276.094,31.739 276.094,31.143 199.464,31.143 199.464,31.739 z" style="fill:#f1911c;fill-opacity:1;fill-rule:nonzero;stroke:none" id="path3015" />
        <path inkscape:connector-curvature="0" d="M 265.876,61.795 266.474,61.795 266.474,26.034 265.876,26.034 265.876,61.795 z" style="fill:#f1911c;fill-opacity:1;fill-rule:nonzero;stroke:none" id="path3017" />
      </g>
    </g>
  </g>
</svg>
